<svg t="1647185942754" class="icon" viewBox="0 0 1080 1024" version="1.1" xmlns="http://www.w3.org/2000/svg" p-id="4744" width="256" height="256"><path d="M766.339982 1023.999513H317.643782a104.135519 104.135519 0 0 1-103.039356-86.962293l-109.616336-648.076136a34.590044 34.590044 0 1 1 68.083924-11.570613l109.616336 648.076136a35.320819 35.320819 0 0 0 34.955432 29.474614h448.6962a35.199023 35.199023 0 0 0 34.955432-29.231023l110.834295-648.076135a34.590044 34.590044 0 1 1 68.083924 11.570613l-110.834295 648.197932a104.257315 104.257315 0 0 1-103.039356 86.596905zM1043.547516 183.851198H34.468248a34.590044 34.590044 0 0 1 0-69.058292h1009.079268a34.590044 34.590044 0 1 1 0 69.058292zM688.512384 69.119433H386.945665a34.590044 34.590044 0 1 1 0-69.058291h301.566719a34.590044 34.590044 0 1 1 0 69.058291z" p-id="4745"></path></svg>